<svg width="174" height="174" viewBox="0 0 174 174" fill="none" xmlns="http://www.w3.org/2000/svg">
<g filter="url(#filter0_d_195_1159)">
<circle cx="87" cy="81" r="71" fill="white"/>
</g>
<path d="M86.9931 47.1905C68.3641 47.1905 53.1836 62.371 53.1836 81C53.1836 99.6291 68.3641 114.81 86.9931 114.81C105.622 114.81 120.803 99.6291 120.803 81C120.803 62.371 105.622 47.1905 86.9931 47.1905ZM103.154 73.2238L83.9841 92.3938C83.5107 92.8672 82.8684 93.1376 82.1922 93.1376C81.516 93.1376 80.8736 92.8672 80.4003 92.3938L70.8322 82.8257C69.8517 81.8453 69.8517 80.2224 70.8322 79.2419C71.8126 78.2615 73.4355 78.2615 74.416 79.2419L82.1922 87.0181L99.5703 69.64C100.551 68.6595 102.174 68.6595 103.154 69.64C104.135 70.6205 104.135 72.2095 103.154 73.2238Z" fill="#42DCDC"/>
<defs>
<filter id="filter0_d_195_1159" x="0" y="0" width="174" height="174" filterUnits="userSpaceOnUse" color-interpolation-filters="sRGB">
<feFlood flood-opacity="0" result="BackgroundImageFix"/>
<feColorMatrix in="SourceAlpha" type="matrix" values="0 0 0 0 0 0 0 0 0 0 0 0 0 0 0 0 0 0 127 0" result="hardAlpha"/>
<feOffset dy="6"/>
<feGaussianBlur stdDeviation="8"/>
<feComposite in2="hardAlpha" operator="out"/>
<feColorMatrix type="matrix" values="0 0 0 0 0.48 0 0 0 0 0.48 0 0 0 0 0.48 0 0 0 0.12 0"/>
<feBlend mode="normal" in2="BackgroundImageFix" result="effect1_dropShadow_195_1159"/>
<feBlend mode="normal" in="SourceGraphic" in2="effect1_dropShadow_195_1159" result="shape"/>
</filter>
</defs>
</svg>
